# xmcd
#
# Track frame offsets:
#	150
#	10204
#	22683
#	36219
#	52288
#	64963
#	75502
#	90080
#	105083
#	113342
#
# Disc length: 1734 seconds
#
# Revision: 0
# Processed by: cddbd v1.5.1PL0 Copyright (c) Steve Scherf et al.
# Submitted via: dBpowerAMP V4.0
#
DISCID=6206c40a
DTITLE=Donovan - Universal Soldier
DYEAR=1900
DGENRE=Ballad
TTITLE0=Universal Soldier
TTITLE1=To Sing For You
TTITLE2=Why Do You Treat Me Like You Do
TTITLE3=Turquoise
TTITLE4=Colours
TTITLE5=Catch The Wind
TTITLE6=Hey Gyp (Dig The Slowness)
TTITLE7=The Ballad of a Crystal Man
TTITLE8=Do You Hear Me Know
TTITLE9=The War Drags On
EXTD=
EXTT0=
EXTT1=
EXTT2=
EXTT3=
EXTT4=
EXTT5=
EXTT6=
EXTT7=
EXTT8=
EXTT9=
PLAYORDER=
